<svg xmlns="http://www.w3.org/2000/svg" xmlns:xlink="http://www.w3.org/1999/xlink" fill="none" version="1.1" width="84" height="84" viewBox="0 0 84 84"><g><g><ellipse cx="42" cy="42" rx="42" ry="42" fill="#001529" fill-opacity="1"/></g><g><g><g><path d="M23,43.6505126953125C23,43.6505126953125,31.06707,48.0510226953125,31.06707,48.0510226953125C31.06707,48.0510226953125,31.06707,58.0000126953125,31.06707,58.0000126953125C31.06707,58.0000126953125,23,53.2168426953125,23,53.2168426953125C23,53.2168426953125,23,43.6505126953125,23,43.6505126953125Z" fill="#4690BA" fill-opacity="1"/></g><g><path d="M31.06640625,48.43365208984375C31.06640625,48.43365208984375,38.74933625,44.03314208984375,38.74933625,44.03314208984375C38.74933625,44.03314208984375,38.74933625,53.40814208984375,38.74933625,53.40814208984375C38.74933625,53.40814208984375,31.06640625,57.99994208984375,31.06640625,57.99994208984375C31.06640625,57.99994208984375,31.06640625,48.43365208984375,31.06640625,48.43365208984375Z" fill="#60C1F9" fill-opacity="1"/></g><g><path d="M23,43.65051C23,43.65051,31.06707,39.25,31.06707,39.25C31.06707,39.25,38.75,44.03316,38.75,44.03316C38.75,44.03316,31.06707,48.43367,31.06707,48.43367C31.06707,48.43367,23,43.65051,23,43.65051Z" fill="#86D7FB" fill-opacity="1"/></g></g><g><g><path d="M46.25,43.4744873046875C46.25,43.4744873046875,54.31707,47.6989773046875,54.31707,47.6989773046875C54.31707,47.6989773046875,54.31707,57.2499873046875,54.31707,57.2499873046875C54.31707,57.2499873046875,46.25,52.6581573046875,46.25,52.6581573046875C46.25,52.6581573046875,46.25,43.4744873046875,46.25,43.4744873046875Z" fill="#4690BA" fill-opacity="1"/></g><g><path d="M54.31640625,48.06634791015625C54.31640625,48.06634791015625,61.99933625,43.84185791015625,61.99933625,43.84185791015625C61.99933625,43.84185791015625,61.99933625,52.84185791015625,61.99933625,52.84185791015625C61.99933625,52.84185791015625,54.31640625,57.25005791015625,54.31640625,57.25005791015625C54.31640625,57.25005791015625,54.31640625,48.06634791015625,54.31640625,48.06634791015625Z" fill="#60C1F9" fill-opacity="1"/></g><g><path d="M46.25,43.47449C46.25,43.47449,54.31707,39.25,54.31707,39.25C54.31707,39.25,62,43.84184,62,43.84184C62,43.84184,54.31707,48.06633,54.31707,48.06633C54.31707,48.06633,46.25,43.47449,46.25,43.47449Z" fill="#86D7FB" fill-opacity="1"/></g></g><g><g><path d="M35,52.6505126953125C35,52.6505126953125,42.68293,57.0510226953125,42.68293,57.0510226953125C42.68293,57.0510226953125,42.68293,67.0000126953125,42.68293,67.0000126953125C42.68293,67.0000126953125,35,62.2168426953125,35,62.2168426953125C35,62.2168426953125,35,52.6505126953125,35,52.6505126953125Z" fill="#4690BA" fill-opacity="1"/></g><g><path d="M42.68359375,57.43365208984375C42.68359375,57.43365208984375,50.00066375,53.03314208984375,50.00066375,53.03314208984375C50.00066375,53.03314208984375,50.00066375,62.40814208984375,50.00066375,62.40814208984375C50.00066375,62.40814208984375,42.68359375,66.99994208984376,42.68359375,66.99994208984376C42.68359375,66.99994208984376,42.68359375,57.43365208984375,42.68359375,57.43365208984375Z" fill="#60C1F9" fill-opacity="1"/></g><g><path d="M35,52.65051C35,52.65051,42.68293,48.25,42.68293,48.25C42.68293,48.25,50,53.03316,50,53.03316C50,53.03316,42.68293,57.43367,42.68293,57.43367C42.68293,57.43367,35,52.65051,35,52.65051Z" fill="#86D7FB" fill-opacity="1"/></g></g><g><g><path d="M35,23.4005126953125C35,23.4005126953125,42.68293,27.8010226953125,42.68293,27.8010226953125C42.68293,27.8010226953125,42.68293,37.7500126953125,42.68293,37.7500126953125C42.68293,37.7500126953125,35,32.9668426953125,35,32.9668426953125C35,32.9668426953125,35,23.4005126953125,35,23.4005126953125Z" fill="#4690BA" fill-opacity="1"/></g><g><path d="M42.68359375,28.18365208984375C42.68359375,28.18365208984375,50.00066375,23.78314208984375,50.00066375,23.78314208984375C50.00066375,23.78314208984375,50.00066375,33.15814208984375,50.00066375,33.15814208984375C50.00066375,33.15814208984375,42.68359375,37.74994208984375,42.68359375,37.74994208984375C42.68359375,37.74994208984375,42.68359375,28.18365208984375,42.68359375,28.18365208984375Z" fill="#60C1F9" fill-opacity="1"/></g><g><path d="M35,23.40051C35,23.40051,42.68293,19,42.68293,19C42.68293,19,50,23.78316,50,23.78316C50,23.78316,42.68293,28.18367,42.68293,28.18367C42.68293,28.18367,35,23.40051,35,23.40051Z" fill="#86D7FB" fill-opacity="1"/></g></g><g><g><path d="M23,30.9005126953125C23,30.9005126953125,31.06707,35.3010226953125,31.06707,35.3010226953125C31.06707,35.3010226953125,31.06707,45.2500126953125,31.06707,45.2500126953125C31.06707,45.2500126953125,23,40.4668426953125,23,40.4668426953125C23,40.4668426953125,23,30.9005126953125,23,30.9005126953125Z" fill="#4690BA" fill-opacity="1"/></g><g><path d="M31.06640625,35.68365208984375C31.06640625,35.68365208984375,38.74933625,31.28314208984375,38.74933625,31.28314208984375C38.74933625,31.28314208984375,38.74933625,40.65814208984375,38.74933625,40.65814208984375C38.74933625,40.65814208984375,31.06640625,45.24994208984375,31.06640625,45.24994208984375C31.06640625,45.24994208984375,31.06640625,35.68365208984375,31.06640625,35.68365208984375Z" fill="#60C1F9" fill-opacity="1"/></g><g><path d="M23,30.90051C23,30.90051,31.06707,26.5,31.06707,26.5C31.06707,26.5,38.75,31.28316,38.75,31.28316C38.75,31.28316,31.06707,35.68367,31.06707,35.68367C31.06707,35.68367,23,30.90051,23,30.90051Z" fill="#86D7FB" fill-opacity="1"/></g></g><g><g><path d="M46.25,30.3265380859375C46.25,30.3265380859375,54.31707,34.9030680859375,54.31707,34.9030680859375C54.31707,34.9030680859375,54.31707,45.250038085937504,54.31707,45.250038085937504C54.31707,45.250038085937504,46.25,40.2755180859375,46.25,40.2755180859375C46.25,40.2755180859375,46.25,30.3265380859375,46.25,30.3265380859375Z" fill="#4690BA" fill-opacity="1"/></g><g><path d="M54.31640625,35.3010173046875C54.31640625,35.3010173046875,61.99933625,30.7244873046875,61.99933625,30.7244873046875C61.99933625,30.7244873046875,61.99933625,40.4744873046875,61.99933625,40.4744873046875C61.99933625,40.4744873046875,54.31640625,45.2499873046875,54.31640625,45.2499873046875C54.31640625,45.2499873046875,54.31640625,35.3010173046875,54.31640625,35.3010173046875Z" fill="#60C1F9" fill-opacity="1"/></g><g><path d="M46.25,30.326529999999998C46.25,30.326529999999998,54.31707,25.75,54.31707,25.75C54.31707,25.75,62,30.72449,62,30.72449C62,30.72449,54.31707,35.30102,54.31707,35.30102C54.31707,35.30102,46.25,30.326529999999998,46.25,30.326529999999998Z" fill="#86D7FB" fill-opacity="1"/></g></g><g><g><path d="M35,39.7244873046875C35,39.7244873046875,42.68293,43.9489773046875,42.68293,43.9489773046875C42.68293,43.9489773046875,42.68293,53.4999873046875,42.68293,53.4999873046875C42.68293,53.4999873046875,35,48.9081573046875,35,48.9081573046875C35,48.9081573046875,35,39.7244873046875,35,39.7244873046875Z" fill="#4690BA" fill-opacity="1"/></g><g><path d="M42.68359375,44.31634791015625C42.68359375,44.31634791015625,50.00066375,40.09185791015625,50.00066375,40.09185791015625C50.00066375,40.09185791015625,50.00066375,49.09185791015625,50.00066375,49.09185791015625C50.00066375,49.09185791015625,42.68359375,53.50005791015625,42.68359375,53.50005791015625C42.68359375,53.50005791015625,42.68359375,44.31634791015625,42.68359375,44.31634791015625Z" fill="#60C1F9" fill-opacity="1"/></g><g><path d="M35,39.72449C35,39.72449,42.68293,35.5,42.68293,35.5C42.68293,35.5,50,40.09184,50,40.09184C50,40.09184,42.68293,44.31633,42.68293,44.31633C42.68293,44.31633,35,39.72449,35,39.72449Z" fill="#86D7FB" fill-opacity="1"/></g></g></g></g></svg>