<svg xmlns="http://www.w3.org/2000/svg" xmlns:xlink="http://www.w3.org/1999/xlink" fill="none" version="1.1" width="14" height="12" viewBox="0 0 14 12"><g><path d="M5.49479,0.119468C6.59081,-0.0427031,7.49601,-0.0369162,8.4981,0.119468C9.1837,0.272022,9.87846,0.391316,10.5527,0.587892C11.0519,0.733391,11.4126,1.08919,11.5909,1.63268C11.8742,2.49137,12.1711,3.34494,12.4835,4.19193C12.5366,4.33364,12.7093,4.54215,12.8063,4.53107C13.4631,4.45325,13.7722,4.83685,13.973,5.40434C14.0212,5.5782,13.9944,5.75234,13.973,5.86735C13.6993,5.94716,13.4256,6.02608,13.1739,6.09876C13.2093,6.39769,13.2734,6.70129,13.2749,7.00473C13.2859,8.38896,13.294,9.77371,13.2675,11.1581C13.2631,11.405,13.1272,11.7894,13.0325,11.8518C12.9429,12.0136,10.9491,12.0058,10.7939,11.8936C10.276,11.5401,10.5947,10.9471,10.4286,10.466L3.65457,10.466C3.52346,10.9749,3.44534,11.8297,3.28724,11.8936C2.94244,12.0329,1.09413,12.038,0.990973,11.8936C0.850973,11.7894,0.755954,11.3698,0.737497,11.1004C0.699147,10.5173,0.721309,9.92982,0.726778,9.34406C0.737141,8.25662,0.752618,7.16928,0.766221,6.07445C0.572108,6.02096,0.295799,5.94397,0.0194632,5.86701C0.00435576,5.76281,-0.0154958,5.63553,0.0194632,5.49652C0.211457,4.89732,0.492155,4.43469,1.21165,4.53107C1.29863,4.54261,1.45885,4.34747,1.50636,4.21669C1.75211,3.54005,2.01591,2.86453,2.19157,2.16616C2.48598,0.991955,3.29311,0.519729,4.3236,0.311496C4.71153,0.233676,5.10464,0.182517,5.49479,0.119468ZM2.40162,4.75636C5.51508,5.43346,8.49917,5.4493,11.5604,4.75636C11.3032,3.92401,11.0452,3.18476,10.8511,2.42831C10.6839,1.77869,10.2838,1.45884,9.688,1.43092C8.23613,1.36255,6.7839,1.30794,5.33156,1.29627C4.85339,1.29241,4.36824,1.4112,3.89889,1.52887C3.70543,1.57773,3.45086,1.73257,3.38492,1.90672C3.03861,2.8161,2.74309,3.74782,2.40162,4.75636ZM2.99922,8.29459C3.00029,8.27682,2.99847,8.31205,2.99922,8.29459C3.24821,8.29459,3.51022,8.28536,3.74705,8.22724C3.91911,8.18494,4.13717,8.03831,4.19175,7.88309C4.23005,7.77279,4.06499,7.48981,3.92829,7.42355C3.35948,7.14647,2.77521,6.89512,2.17909,6.68965C1.88215,6.58702,1.55133,6.60638,1.45554,7.0512C1.31593,7.70153,1.44638,8.06424,1.90942,8.1656C2.26566,8.24345,2.63524,8.25426,2.99922,8.29459ZM11.0666,8.29254C11.3882,8.25198,11.7869,8.23694,12.1685,8.14359C12.6902,8.01785,12.5801,7.55519,12.5679,7.1635C12.5576,6.82813,12.3594,6.57622,12.072,6.67018C11.3536,6.90444,10.6404,7.1805,9.96439,7.52506C9.65379,7.68371,9.76501,8.12115,10.1183,8.20247C10.4013,8.2671,10.6993,8.26097,11.0666,8.29254Z" fill="currentColor" fill-opacity="1"/></g></svg>
